HIERARCHY
ROOT joint_Root
{
	OFFSET 0.0 0.0 0.0
	CHANNELS 6 Xposition Yposition Zposition Zrotation Xrotation Yrotation 
	JOINT Hips
	{
		OFFSET -0.726466 93.3139 -2.00062
		CHANNELS 6 Xposition Yposition Zposition Zrotation Xrotation Yrotation 
		JOINT Spine
		{
			OFFSET 15.7357 0.0 0.0
			CHANNELS 6 Xposition Yposition Zposition Zrotation Xrotation Yrotation 
			JOINT Chest
			{
				OFFSET 8.98455 -0.406207 0.0
				CHANNELS 6 Xposition Yposition Zposition Zrotation Xrotation Yrotation 
				JOINT Neck
				{
					OFFSET 16.3773 0.0 0.0
					CHANNELS 6 Xposition Yposition Zposition Zrotation Xrotation Yrotation 
					JOINT Head
					{
						OFFSET 6.45672 0.0 0.0
						CHANNELS 6 Xposition Yposition Zposition Zrotation Xrotation Yrotation 
						End Site
						{
							OFFSET 0.0 0.0 0.0
						}
					}
				}
				JOINT Shoulder_L
				{
					OFFSET 12.9942 -0.242716 4.98039
					CHANNELS 6 Xposition Yposition Zposition Zrotation Xrotation Yrotation 
					JOINT UpperArm_L
					{
						OFFSET 5.34809 0.0 0.0
						CHANNELS 6 Xposition Yposition Zposition Zrotation Xrotation Yrotation 
						JOINT LowerArm_L
						{
							OFFSET 24.3286 1.87007e-05 0.0
							CHANNELS 6 Xposition Yposition Zposition Zrotation Xrotation Yrotation 
							JOINT Hand_L
							{
								OFFSET 22.2916 0.0 0.0
								CHANNELS 6 Xposition Yposition Zposition Zrotation Xrotation Yrotation 
								End Site
								{
									OFFSET 0.0 0.0 0.0
								}
							}
						}
					}
				}
				JOINT Shoulder_R
				{
					OFFSET 12.9945 -0.242716 -4.98039
					CHANNELS 6 Xposition Yposition Zposition Zrotation Xrotation Yrotation 
					JOINT UpperArm_R
					{
						OFFSET -5.34813 0.0 0.0
						CHANNELS 6 Xposition Yposition Zposition Zrotation Xrotation Yrotation 
						JOINT LowerArm_R
						{
							OFFSET -24.3289 0.000322201 0.0
							CHANNELS 6 Xposition Yposition Zposition Zrotation Xrotation Yrotation 
							JOINT Hand_R
							{
								OFFSET -22.2915 -0.000108084 0.0
								CHANNELS 6 Xposition Yposition Zposition Zrotation Xrotation Yrotation 
								End Site
								{
									OFFSET 0.0 0.0 0.0
								}
							}
						}
					}
				}
			}
		}
		JOINT UpperLeg_L
		{
			OFFSET -2.19248 -6.46944 0.0
			CHANNELS 6 Xposition Yposition Zposition Zrotation Xrotation Yrotation 
			JOINT LowerLeg_L
			{
				OFFSET 39.0811 0.0 -1.23785e-05
				CHANNELS 6 Xposition Yposition Zposition Zrotation Xrotation Yrotation 
				JOINT Foot_L
				{
					OFFSET 40.9854 0.0 -1.26872e-05
					CHANNELS 6 Xposition Yposition Zposition Zrotation Xrotation Yrotation 
					JOINT Toes_L
					{
						OFFSET 11.7543 0.0 0.0
						CHANNELS 6 Xposition Yposition Zposition Zrotation Xrotation Yrotation 
						End Site
						{
							OFFSET 0.0 0.0 0.0
						}
					}
				}
			}
		}
		JOINT UpperLeg_R
		{
			OFFSET -2.19251 6.46944 0.0
			CHANNELS 6 Xposition Yposition Zposition Zrotation Xrotation Yrotation 
			JOINT LowerLeg_R
			{
				OFFSET -39.0811 -0.00228153 -0.0401928
				CHANNELS 6 Xposition Yposition Zposition Zrotation Xrotation Yrotation 
				JOINT Foot_R
				{
					OFFSET -40.9854 0.0 0.0
					CHANNELS 6 Xposition Yposition Zposition Zrotation Xrotation Yrotation 
					JOINT Toes_R
					{
						OFFSET -11.7543 0.0 0.0
						CHANNELS 6 Xposition Yposition Zposition Zrotation Xrotation Yrotation 
						End Site
						{
							OFFSET 0.0 0.0 0.0
						}
					}
				}
			}
		}
	}
}
MOTION
Frames:	4
Frame Time:	0.0333333
0.000000 0.000000 0.000000 0.000000 0.000000 -0.000000 -1.650930 92.144100 -0.327509 88.137100 -2.856740 5.233320 15.735700 0.000005 -0.000001 77.024300 85.683100 -75.720600 8.984550 -0.406207 -0.000000 0.672234 -2.018620 2.617440 16.377300 -0.000001 -0.000001 4.996680 -1.705970 -0.235030 6.456720 -0.000001 -0.000000 2.764430 0.157123 2.999270 12.994200 -0.242716 4.980390 -88.451100 -5.062810 -72.964300 5.348090 -0.000007 -0.000001 -75.576800 -27.877500 -78.199200 24.328600 0.000019 0.000005 12.651000 -0.603071 -92.684800 22.291600 -0.000001 0.000005 18.846000 5.576360 -10.018800 12.994500 -0.242716 -4.980390 87.742500 6.670470 -71.254200 -5.348130 -0.000001 -0.000004 -65.171400 36.552700 -13.978900 -24.328900 0.000322 -0.000009 2.356320 8.291290 -15.932600 -22.291500 -0.000108 -0.000004 9.984540 5.409850 -3.260340 -2.192480 -6.469440 -0.000000 -174.794000 -6.663350 -0.984792 39.081100 -0.000007 -0.000012 -0.130812 0.304551 23.244900 40.985400 -0.000006 -0.000013 -1.241710 1.972310 -67.023300 11.754300 -0.000000 0.000003 -0.000044 -0.000510 -16.597400 -2.192510 6.469440 -0.000001 -179.881000 11.321600 -179.697000 -39.081100 -0.002282 -0.040193 -0.032252 0.092987 20.934000 -40.985400 0.000008 0.000006 4.249210 7.275640 -66.627300 -11.754300 -0.000006 -0.000006 -0.007928 -0.087447 -20.133900
0.000000 0.000000 0.000000 0.000000 0.000000 -0.000000 -1.665950 92.150700 -0.368776 88.117100 -2.831830 5.202720 15.735700 0.000005 -0.000001 77.198500 85.687600 -75.917800 8.984550 -0.406207 -0.000000 0.668615 -1.989680 2.571280 16.377300 -0.000001 -0.000001 4.978280 -1.672370 -0.294376 6.456720 -0.000001 -0.000000 2.750050 0.113044 2.986200 12.994200 -0.242716 4.980390 -88.444400 -5.063460 -72.897000 5.348090 -0.000007 -0.000001 -75.633100 -27.853500 -78.331900 24.328600 0.000019 0.000005 12.311700 -0.559636 -92.562500 22.291600 -0.000001 0.000005 18.977100 5.577370 -10.072100 12.994500 -0.242716 -4.980390 87.746800 6.660790 -71.262200 -5.348130 -0.000001 -0.000004 -65.258400 36.620500 -13.948800 -24.328900 0.000322 -0.000009 2.376730 8.304610 -16.039400 -22.291500 -0.000108 -0.000004 10.018000 5.410150 -3.270330 -2.192480 -6.469440 -0.000000 -174.778000 -6.558600 -1.052040 39.081100 -0.000007 -0.000012 -0.130675 0.304305 23.239800 40.985400 -0.000006 -0.000013 -1.261940 1.943420 -66.985900 11.754300 -0.000000 0.000003 -0.000040 -0.000463 -16.595600 -2.192510 6.469440 -0.000001 -179.823000 11.300800 -179.745000 -39.081100 -0.002282 -0.040193 -0.029834 0.086762 20.913100 -40.985400 0.000008 0.000006 4.361140 7.227820 -66.607000 -11.754300 -0.000006 -0.000006 -0.007938 -0.087526 -20.137100
0.000000 0.000000 0.000000 0.000000 0.000000 -0.000000 -1.678640 92.160700 -0.429942 88.125800 -2.819630 5.158780 15.735700 0.000005 -0.000001 77.542900 85.705000 -76.301100 8.984550 -0.406207 -0.000000 0.644420 -1.929450 2.492730 16.377300 -0.000001 -0.000001 4.990550 -1.631650 -0.323755 6.456720 -0.000001 -0.000000 2.744790 0.128082 3.003710 12.994200 -0.242716 4.980390 -88.434800 -5.064750 -72.801600 5.348090 -0.000007 -0.000001 -75.499300 -27.717400 -78.408500 24.328600 0.000019 0.000005 11.718900 -0.520817 -92.509200 22.291600 -0.000001 0.000005 18.991500 5.578690 -10.141700 12.994500 -0.242716 -4.980390 87.740800 6.688510 -71.287900 -5.348130 -0.000001 -0.000004 -65.356800 36.688400 -13.850800 -24.328900 0.000322 -0.000009 2.361260 8.232340 -16.072000 -22.291500 -0.000108 -0.000004 9.970570 5.409730 -3.256170 -2.192480 -6.469440 -0.000000 -174.797000 -6.537890 -1.122770 39.081100 -0.000007 -0.000012 -0.129069 0.301110 23.202200 40.985400 -0.000006 -0.000013 -1.273160 1.907080 -66.923100 11.754300 -0.000000 0.000003 -0.000049 -0.000553 -16.599000 -2.192510 6.469440 -0.000001 -179.811000 11.313500 -179.817000 -39.081100 -0.002282 -0.040193 -0.031191 0.090502 20.873300 -40.985400 0.000008 0.000006 4.295260 7.237820 -66.532100 -11.754300 -0.000006 -0.000006 -0.007613 -0.084843 -20.027600
0.000000 0.000000 0.000000 0.000000 0.000000 -0.000000 -1.685360 92.156400 -0.453488 88.117200 -2.803400 5.180580 15.735700 0.000005 -0.000001 77.926700 85.686600 -76.709600 8.984550 -0.406207 -0.000000 0.691639 -1.878900 2.443760 16.377300 -0.000001 -0.000001 5.024000 -1.598250 -0.344690 6.456720 -0.000001 -0.000000 2.695710 0.144867 2.934450 12.994200 -0.242716 4.980390 -88.438100 -5.047800 -72.781400 5.348090 -0.000007 -0.000001 -75.162400 -27.715300 -78.306900 24.328600 0.000019 0.000005 11.293500 -0.523105 -92.617600 22.291600 -0.000001 0.000005 18.889000 5.580440 -10.235400 12.994500 -0.242716 -4.980390 87.751200 6.679910 -71.346000 -5.348130 -0.000001 -0.000004 -65.487900 36.727600 -13.828500 -24.328900 0.000322 -0.000009 2.355210 8.278770 -15.948200 -22.291500 -0.000108 -0.000004 9.994310 5.408880 -3.228320 -2.192480 -6.469440 -0.000000 -174.767000 -6.577640 -1.144090 39.081100 -0.000007 -0.000012 -0.130221 0.303073 23.251800 40.985400 -0.000006 -0.000013 -1.260160 1.999120 -66.927800 11.754300 -0.000000 0.000003 -0.000038 -0.000447 -16.595000 -2.192510 6.469440 -0.000001 -179.802000 11.310500 -179.829000 -39.081100 -0.002282 -0.040193 -0.033334 0.095930 20.911300 -40.985400 0.000008 0.000006 4.286650 7.217430 -66.533700 -11.754300 -0.000006 -0.000006 -0.008125 -0.089049 -20.199400
